<?xml version="1.0" standalone="no"?>
<!DOCTYPE svg PUBLIC "-//W3C//DTD SVG 20010904//EN"
 "http://www.w3.org/TR/2001/REC-SVG-20010904/DTD/svg10.dtd">
<svg version="1.0" xmlns="http://www.w3.org/2000/svg"
 width="1020.000000pt" height="1020.000000pt" viewBox="0 0 1020.000000 1020.000000"
 preserveAspectRatio="xMidYMid meet">

<g transform="translate(0.000000,1020.000000) scale(0.100000,-0.100000)"
fill="#000000" stroke="none">
<path d="M5066 9865 c-11 -8 -28 -15 -38 -15 -10 0 -18 -4 -18 -8 0 -5 -16
-17 -35 -28 -19 -10 -35 -21 -35 -24 0 -3 -20 -14 -45 -24 -25 -11 -45 -23
-45 -28 0 -4 -7 -8 -15 -8 -8 0 -15 -4 -15 -9 0 -5 -12 -12 -27 -16 -15 -3
-39 -16 -54 -28 -28 -24 -59 -42 -154 -92 -75 -40 -137 -75 -150 -85 -5 -4
-46 -27 -90 -50 -44 -23 -91 -50 -105 -58 -14 -9 -68 -38 -120 -65 -52 -27
-102 -55 -110 -62 -8 -7 -26 -16 -40 -20 -14 -4 -27 -11 -30 -14 -9 -11 -254
-130 -282 -137 -16 -3 -28 -10 -28 -15 0 -5 -7 -9 -15 -9 -8 0 -15 -4 -15 -10
0 -5 -6 -10 -12 -10 -7 0 -33 -11 -58 -24 -170 -88 -286 -146 -293 -146 -5 0
-45 -18 -88 -40 -44 -22 -88 -40 -99 -40 -11 0 -20 -4 -20 -8 0 -5 -24 -20
-52 -34 -29 -14 -101 -49 -159 -77 -59 -28 -118 -51 -133 -51 -14 0 -26 -4
-26 -10 0 -5 -7 -10 -15 -10 -8 0 -15 -4 -15 -9 0 -5 -12 -12 -27 -16 -15 -3
-54 -19 -88 -34 -33 -16 -80 -36 -105 -46 -44 -17 -95 -38 -135 -55 -11 -4
-50 -22 -87 -39 -37 -17 -71 -31 -76 -31 -9 0 -67 -24 -152 -62 -25 -11 -62
-23 -83 -26 -20 -2 -37 -9 -37 -13 0 -5 -9 -9 -19 -9 -11 0 -23 -4 -26 -10 -3
-5 -13 -10 -22 -10 -13 0 -31 -7 -108 -41 -11 -5 -50 -20 -87 -34 -38 -14 -76
-29 -85 -34 -10 -5 -37 -17 -60 -26 -42 -18 -43 -19 -43 -66 0 -26 -4 -51 -10
-54 -6 -4 -10 -57 -10 -125 0 -65 -4 -121 -8 -124 -12 -7 -6 -796 6 -931 6
-60 16 -222 23 -360 6 -137 16 -251 20 -253 5 -2 9 -26 9 -53 0 -27 4 -57 9
-67 8 -15 21 -112 38 -272 2 -25 7 -52 11 -60 3 -8 11 -64 18 -125 7 -60 22
-153 33 -205 25 -110 37 -170 54 -260 7 -36 15 -70 19 -75 3 -6 10 -39 14 -73
3 -34 11 -62 15 -62 5 0 9 -13 9 -29 0 -17 4 -32 9 -36 5 -3 13 -34 16 -70 4
-36 10 -65 14 -65 4 0 12 -21 19 -48 8 -26 18 -55 23 -64 5 -10 9 -25 9 -34 0
-19 57 -199 71 -226 5 -10 9 -29 9 -42 0 -14 4 -27 9 -30 5 -3 12 -26 15 -51
4 -24 11 -47 15 -50 5 -2 14 -25 21 -50 7 -25 16 -45 20 -45 4 0 11 -19 14
-43 4 -23 18 -66 31 -96 14 -29 25 -60 25 -69 0 -10 9 -28 20 -42 11 -14 20
-34 20 -45 0 -11 7 -33 16 -50 8 -16 27 -59 40 -95 14 -36 48 -110 75 -165 27
-55 49 -108 49 -117 0 -9 4 -18 8 -20 4 -1 27 -43 50 -93 24 -49 47 -97 53
-105 5 -8 13 -25 19 -37 5 -12 22 -41 37 -65 15 -24 42 -72 61 -108 52 -103
83 -155 93 -158 5 -2 9 -8 9 -13 0 -6 16 -35 35 -65 19 -30 35 -56 35 -58 0
-5 83 -130 90 -136 4 -3 10 -12 13 -20 4 -8 15 -27 25 -41 9 -14 31 -48 49
-75 17 -27 38 -58 47 -69 9 -11 46 -60 83 -110 37 -49 71 -91 75 -93 4 -2 8
-8 8 -13 0 -6 13 -24 30 -42 16 -18 30 -37 30 -43 0 -5 21 -32 46 -60 26 -27
63 -67 84 -89 21 -22 39 -46 41 -53 8 -25 423 -451 573 -587 49 -44 99 -90
113 -103 13 -12 27 -22 30 -22 3 0 39 -30 80 -68 41 -37 83 -72 94 -78 10 -6
34 -24 52 -40 18 -16 40 -33 48 -39 39 -25 103 -72 134 -97 18 -16 37 -28 41
-28 5 0 18 -11 28 -25 10 -14 25 -25 33 -25 14 0 88 -51 130 -90 12 -11 27
-20 34 -20 11 0 89 -52 123 -83 11 -9 25 -17 32 -17 7 0 17 -6 21 -13 4 -6 25
-20 46 -29 20 -10 37 -22 37 -28 0 -5 7 -10 17 -10 9 0 30 -10 47 -23 17 -13
46 -29 64 -36 17 -8 32 -17 32 -21 0 -4 11 -11 25 -14 14 -4 25 -11 25 -16 0
-6 14 -10 30 -10 17 0 30 4 30 9 0 5 8 12 18 15 24 9 92 47 127 72 26 18 55
35 170 98 11 6 27 19 36 29 9 9 19 17 22 17 3 0 26 13 50 30 25 16 49 30 54
30 4 0 14 9 21 20 7 11 16 20 21 20 8 0 100 56 126 77 6 5 30 24 55 43 25 19
47 37 50 40 3 3 23 17 45 30 22 13 44 30 48 37 4 7 13 13 20 13 7 1 30 19 52
40 22 22 45 40 52 40 7 0 30 19 50 41 21 23 45 44 54 48 19 7 94 71 186 158
36 35 68 63 70 63 7 0 85 75 172 164 42 43 82 83 89 90 31 27 126 127 150 157
15 18 43 49 63 68 20 20 40 44 45 53 5 9 33 42 62 72 28 31 52 61 52 66 0 5 9
15 21 22 11 7 30 29 42 48 11 19 23 37 26 40 20 18 101 120 101 127 0 5 9 16
20 26 11 9 20 22 20 29 0 7 18 32 40 55 22 23 44 52 50 65 12 29 30 56 53 82
9 11 17 26 17 33 0 7 4 13 8 13 10 0 62 77 62 91 0 5 4 9 9 9 5 0 13 10 17 23
4 12 17 36 30 53 13 17 24 35 24 41 0 5 9 18 20 28 11 10 20 23 20 28 0 6 10
24 23 41 13 17 30 47 39 66 9 19 26 45 37 57 12 12 21 28 21 35 0 15 52 118
79 157 19 27 161 315 161 326 0 4 22 52 49 108 27 56 57 125 66 152 10 28 24
59 31 70 6 11 15 31 19 45 7 24 18 51 50 124 8 19 15 41 15 50 0 9 5 16 10 16
6 0 10 11 10 24 0 25 29 105 61 168 5 9 12 35 15 58 4 22 11 43 15 46 5 3 9
18 9 34 0 16 5 32 10 35 6 3 10 17 10 30 0 13 4 26 9 29 5 4 12 24 16 46 4 22
11 42 16 46 5 3 9 16 9 29 0 13 4 26 9 29 4 3 11 28 15 55 4 28 11 53 16 56 6
3 10 15 10 26 0 10 5 19 10 19 6 0 10 17 10 38 0 21 4 42 9 48 5 5 14 41 20
80 6 38 20 99 31 133 11 35 20 75 20 89 0 14 4 39 9 56 21 69 41 166 41 195 0
16 5 33 10 36 6 3 10 26 10 51 0 24 5 44 10 44 6 0 10 21 10 48 0 26 5 76 11
112 5 36 14 99 20 140 18 136 21 155 29 165 4 6 11 60 15 120 4 61 10 115 15
120 4 6 10 71 14 145 3 74 11 191 16 260 5 69 10 169 10 222 0 53 4 100 10
103 6 4 10 147 10 395 0 248 -4 391 -10 395 -6 4 -10 53 -10 114 0 59 -3 142
-6 183 l-7 75 -41 17 c-22 10 -59 26 -81 36 -22 10 -62 26 -90 35 -27 9 -61
23 -75 30 -14 7 -43 18 -65 25 -22 6 -53 18 -70 25 -16 7 -95 38 -175 70 -80
31 -168 68 -197 81 -28 13 -55 24 -58 24 -7 0 -101 42 -158 71 -22 10 -44 19
-50 19 -7 0 -39 14 -72 30 -33 16 -66 30 -72 30 -7 0 -34 11 -60 25 -27 14
-84 41 -128 61 -44 19 -98 43 -120 53 -22 10 -96 45 -165 79 -69 33 -138 64
-152 67 -14 4 -34 15 -45 24 -10 10 -32 21 -48 25 -16 4 -40 15 -54 25 -14 10
-37 22 -51 26 -14 4 -31 12 -38 18 -15 12 -54 32 -261 138 -85 43 -162 86
-171 94 -9 8 -20 15 -24 15 -7 0 -166 78 -231 114 -16 9 -35 16 -42 16 -6 0
-13 3 -15 8 -1 4 -32 22 -68 41 -188 97 -275 144 -278 152 -2 5 -12 9 -22 9
-10 0 -21 4 -25 9 -3 6 -30 22 -61 37 -31 15 -58 33 -61 41 -3 7 -14 13 -24
13 -10 0 -28 9 -39 20 -11 11 -25 20 -31 20 -12 0 -110 57 -119 69 -3 4 -21
15 -40 24 -19 10 -53 29 -75 42 -47 28 -54 29 -79 10z m269 -1060 c146 -40
222 -74 342 -154 96 -64 227 -193 284 -281 281 -427 227 -972 -130 -1329 -63
-63 -234 -191 -255 -191 -3 0 -29 -11 -58 -24 -105 -47 -139 -57 -278 -81
-242 -42 -517 21 -735 168 -84 56 -216 187 -276 274 -53 77 -116 206 -138 283
-7 25 -17 58 -22 73 -33 109 -30 365 5 498 109 414 466 733 876 783 76 9 326
-3 385 -19z m3246 -2547 c1 -7 1 -17 0 -21 -1 -4 -6 -49 -11 -100 -28 -255
-71 -526 -129 -807 -19 -95 -78 -342 -101 -430 -5 -19 -11 -44 -14 -55 -2 -11
-14 -54 -26 -95 -12 -41 -33 -111 -46 -155 -63 -214 -162 -508 -204 -602 l-19
-43 -2940 0 -2940 0 -15 33 c-8 17 -22 55 -31 82 -9 28 -21 59 -26 70 -4 11
-20 56 -34 100 -15 44 -30 89 -35 100 -8 18 -46 141 -115 370 -69 233 -159
630 -215 955 -15 86 -42 265 -51 338 -20 163 -28 228 -28 250 l-1 22 3490 0
c2785 0 3490 -3 3491 -12z m-4541 -3260 l48 -118 -27 0 c-20 0 -31 7 -39 25
-10 21 -18 25 -57 25 -39 0 -47 -3 -55 -25 -7 -19 -17 -25 -39 -25 l-29 0 42
103 c24 56 45 110 49 120 5 13 15 17 33 15 22 -3 31 -17 74 -120z m199 113 c8
-5 11 -16 7 -29 -6 -18 -11 -20 -31 -12 -56 21 -75 -19 -22 -46 70 -36 87 -79
47 -122 -24 -26 -104 -31 -134 -9 -24 18 -13 62 12 51 10 -4 32 -9 50 -12 27
-3 32 -1 32 16 0 12 -11 24 -29 32 -92 38 -82 140 13 140 23 0 47 -4 55 -9z
m225 3 c11 -4 13 -11 5 -27 -8 -19 -17 -22 -54 -19 -33 3 -48 -1 -64 -17 -28
-28 -27 -72 4 -101 20 -18 32 -22 64 -17 34 4 41 2 47 -15 9 -29 -13 -39 -74
-35 -44 3 -59 9 -85 36 -28 27 -32 38 -32 82 0 46 4 54 37 85 32 29 45 34 87
34 27 0 56 -3 65 -6z m220 -66 l46 -72 0 72 0 72 30 0 30 0 0 -120 0 -120 -29
0 c-25 0 -35 9 -72 70 -24 39 -47 70 -51 70 -5 0 -8 -31 -8 -70 0 -68 -1 -70
-25 -70 l-25 0 0 120 0 120 29 0 c25 0 35 -10 75 -72z m196 -48 l0 -120 -30 0
-30 0 0 120 0 120 30 0 30 0 0 -120z m170 95 c0 -22 -4 -25 -40 -25 -36 0 -40
-2 -40 -25 0 -22 4 -25 40 -25 33 0 40 -3 40 -20 0 -17 -7 -20 -40 -20 -36 0
-40 -2 -40 -25 0 -22 4 -25 40 -25 36 0 40 -2 40 -25 0 -24 -2 -25 -70 -25
l-70 0 0 120 0 120 70 0 c68 0 70 -1 70 -25z m80 -44 c0 -94 12 -123 47 -119
35 4 43 31 35 121 l-5 67 55 0 55 0 18 -80 c21 -90 26 -89 51 12 14 59 19 68
38 68 20 0 25 -9 41 -80 10 -44 22 -77 25 -73 4 4 15 41 25 81 16 69 18 72 46
72 34 0 34 11 -9 -140 -27 -92 -29 -95 -59 -98 -34 -3 -29 -11 -67 123 -1 5
-11 -21 -22 -58 -18 -64 -20 -67 -50 -67 -31 0 -32 1 -55 88 l-24 87 -6 -69
c-5 -56 -10 -73 -29 -88 -30 -24 -100 -24 -131 1 -22 17 -24 28 -27 120 l-4
101 26 0 c25 0 26 -1 26 -69z m530 -26 l0 -95 40 0 c36 0 40 -2 40 -25 0 -24
-2 -25 -65 -25 l-65 0 0 120 0 120 25 0 c25 0 25 0 25 -95z m284 -16 c25 -61
46 -115 46 -120 0 -5 -11 -9 -25 -9 -17 0 -29 8 -37 25 -10 22 -18 25 -59 25
-42 0 -48 -3 -53 -25 -5 -20 -13 -25 -36 -25 -34 0 -36 -13 25 135 46 112 42
105 69 105 20 0 30 -15 70 -111z m163 39 l48 -71 3 71 c3 69 4 72 27 72 l25 0
0 -120 0 -120 -27 0 c-24 1 -35 12 -75 78 l-48 77 0 -78 c0 -75 0 -77 -25 -77
l-25 0 0 120 0 120 25 0 c20 0 35 -15 72 -72z m293 37 c83 -80 21 -205 -102
-205 l-48 0 0 121 0 121 60 -4 c49 -3 65 -9 90 -33z m-2417 -376 c33 -15 57
-60 57 -108 0 -34 -3 -41 -20 -41 -16 0 -20 7 -20 33 0 44 -25 77 -57 77 -94
0 -78 -136 25 -209 54 -38 72 -79 72 -165 0 -69 -2 -78 -28 -108 -25 -27 -36
-31 -76 -31 -38 0 -53 5 -74 26 -23 24 -27 37 -30 102 l-4 75 26 0 c25 0 26
-2 26 -64 0 -70 14 -96 53 -96 42 0 67 36 67 95 0 52 -32 106 -90 155 -63 53
-80 85 -80 151 0 46 4 55 36 85 38 36 73 43 117 23z m197 -275 l0 -285 -22 3
-23 3 -3 270 c-1 148 0 275 3 282 2 7 14 13 25 13 20 0 20 -5 20 -286z m158
261 c7 -14 12 -33 12 -42 0 -9 4 -30 9 -47 6 -17 17 -62 26 -101 28 -120 39
-154 47 -149 4 3 8 86 8 185 l0 180 23 -3 22 -3 3 -260 c1 -143 0 -270 -3
-282 -4 -16 -13 -23 -30 -23 -32 0 -34 6 -88 224 l-42 171 -5 -195 c-5 -193
-5 -195 -27 -198 l-23 -3 0 285 0 286 28 0 c21 0 32 -7 40 -25z m411 -5 c46
-46 56 -136 14 -128 -12 2 -20 16 -24 40 -3 20 -11 44 -19 52 -16 21 -59 20
-82 -1 -16 -15 -18 -35 -18 -219 0 -198 1 -203 22 -218 12 -9 30 -16 40 -16
30 0 58 37 58 75 0 31 3 35 25 35 18 0 25 -5 25 -19 0 -102 -76 -163 -157
-125 -58 28 -63 49 -63 269 0 122 4 205 11 218 35 71 116 88 168 37z m336 5
c0 -18 -8 -21 -80 -25 l-80 -5 -3 -70 c-5 -113 -4 -115 78 -115 63 0 70 -2 70
-20 0 -18 -7 -20 -62 -20 -35 0 -69 -4 -76 -8 -9 -6 -12 -37 -10 -118 l3 -109
80 -5 c72 -4 80 -7 80 -25 0 -19 -8 -20 -102 -23 l-103 -3 0 286 0 286 103 -3
c94 -3 102 -4 102 -23z m313 -257 l-3 -283 -28 -3 c-56 -7 -57 -4 -57 288 0
146 3 270 7 273 3 4 24 7 45 7 l38 0 -2 -282z m298 248 l39 -34 4 -87 c2 -56
-2 -111 -12 -154 -9 -36 -24 -104 -33 -151 -20 -99 -27 -110 -66 -110 -16 0
-31 6 -33 13 -3 6 2 44 11 82 23 100 23 119 -1 123 -42 8 -86 36 -100 63 -18
34 -20 190 -3 222 23 44 61 66 114 66 32 1 49 -6 80 -33z m332 14 c18 -11 37
-32 42 -46 12 -31 12 -184 1 -239 -5 -22 -14 -62 -20 -90 -6 -27 -17 -77 -24
-110 -12 -58 -14 -60 -46 -63 -19 -2 -37 0 -41 5 -5 4 -1 40 8 78 25 116 24
127 -22 140 -23 7 -51 25 -68 45 -26 32 -28 41 -28 118 0 92 13 127 57 161 36
27 98 27 141 1z m400 -11 c2 -15 -6 -46 -16 -70 -50 -113 -91 -297 -92 -411
l0 -58 -40 0 -40 0 0 78 c0 107 29 247 71 339 31 69 32 67 -56 73 -74 5 -80 7
-83 28 -7 51 -2 53 130 50 l123 -3 3 -26z"/>
<path d="M5152 8643 c-117 -66 -113 -51 -57 -185 l35 -84 73 -37 c39 -21 124
-65 187 -98 l115 -61 100 33 c55 18 103 35 107 38 4 3 0 57 -8 120 -11 81 -21
121 -35 139 -27 35 -125 119 -158 136 -36 19 -133 43 -201 51 -53 5 -59 3
-158 -52z"/>
<path d="M4610 8641 c-85 -49 -145 -95 -217 -167 -77 -77 -138 -163 -125 -176
4 -4 28 -2 54 5 37 10 69 33 160 117 63 58 136 125 162 149 43 39 48 47 40 69
-12 34 -21 34 -74 3z"/>
<path d="M4659 8552 c-29 -26 -83 -75 -119 -108 -36 -34 -80 -74 -97 -89 -18
-15 -33 -34 -32 -43 0 -10 24 -51 53 -92 l53 -75 134 -7 c89 -4 140 -3 154 5
39 20 287 211 292 223 3 8 -12 59 -34 114 -28 76 -43 102 -58 105 -11 2 -82 6
-157 9 l-137 6 -52 -48z"/>
<path d="M4318 8243 c-10 -2 -18 -9 -18 -14 0 -5 8 -12 18 -15 9 -3 44 -19 77
-36 l59 -31 -18 29 c-44 69 -65 81 -118 67z"/>
<path d="M5261 8220 c135 -115 129 -108 129 -163 0 -29 5 -70 12 -92 l12 -40
7 50 c4 28 11 77 15 110 l6 60 -90 48 c-95 50 -131 60 -91 27z"/>
<path d="M5613 8192 c-57 -20 -105 -42 -108 -51 -3 -8 -10 -47 -15 -86 -6 -38
-14 -101 -20 -139 -20 -136 -23 -128 80 -271 51 -72 96 -134 100 -138 4 -4 27
-1 51 6 24 8 72 23 107 33 35 10 67 23 73 30 5 6 14 44 19 85 6 41 17 121 24
179 l15 105 -35 50 c-61 89 -170 229 -179 231 -6 1 -56 -14 -112 -34z"/>
<path d="M4531 8110 c-9 -7 -61 -88 -61 -95 0 -3 -15 -29 -33 -58 -55 -87
-107 -184 -107 -201 0 -9 15 -49 33 -88 18 -40 48 -110 67 -156 l34 -82 195 2
196 3 82 160 c45 88 82 165 83 170 0 11 -184 312 -204 332 -11 11 -271 23
-285 13z"/>
<path d="M5965 7941 c-3 -6 -10 -40 -15 -78 -5 -37 -16 -120 -25 -183 -14 -97
-14 -124 -3 -173 13 -59 34 -92 42 -66 16 50 36 121 46 164 12 52 16 316 5
334 -8 14 -42 14 -50 2z"/>
<path d="M4126 7713 c11 -108 36 -203 80 -301 13 -29 24 -55 24 -58 0 -3 24
-42 54 -87 58 -88 121 -155 133 -143 18 17 29 304 14 334 -13 24 -43 92 -81
187 -18 44 -38 85 -44 91 -14 13 -106 34 -152 34 l-34 0 6 -57z"/>
<path d="M5141 7756 l-104 -11 -80 -160 c-90 -181 -90 -158 3 -265 203 -232
192 -222 225 -216 16 3 50 8 75 11 25 3 73 11 108 17 l63 10 70 122 c39 66 84
143 100 170 17 27 28 53 27 58 -2 5 -46 70 -98 143 l-95 134 -95 -1 c-52 0
-142 -6 -199 -12z"/>
<path d="M5843 7503 c-13 -2 -23 -8 -23 -12 0 -15 94 -95 97 -84 5 13 -36 104
-46 102 -3 -1 -16 -4 -28 -6z"/>
<path d="M5370 7109 c-223 -30 -201 -22 -331 -106 -162 -104 -163 -105 -155
-129 5 -16 21 -23 70 -32 124 -23 288 -8 428 38 58 20 202 91 221 109 5 5 -29
33 -75 63 -106 70 -94 65 -158 57z"/>
<path d="M4435 7101 c-7 -13 105 -103 179 -143 66 -36 174 -81 219 -92 23 -6
28 -4 25 10 -3 18 -19 27 -233 139 -82 42 -154 82 -159 86 -13 12 -23 11 -31
0z"/>
<path d="M4003 5760 c-114 -24 -220 -106 -271 -209 -23 -48 -27 -68 -27 -141
0 -70 4 -93 24 -129 43 -81 105 -132 261 -211 166 -84 200 -113 200 -172 0
-32 -6 -46 -31 -69 -75 -70 -239 -45 -380 56 l-49 35 -23 -38 c-13 -20 -43
-70 -67 -110 -42 -71 -42 -73 -24 -93 25 -27 166 -95 239 -115 104 -27 238
-30 334 -5 175 44 265 135 290 291 29 181 -52 287 -313 414 -205 99 -242 145
-177 218 26 29 35 33 99 36 77 5 146 -13 218 -53 l40 -24 53 107 c60 121 62
113 -38 158 -110 49 -268 73 -358 54z"/>
<path d="M5058 5760 c-251 -45 -462 -235 -522 -466 -97 -377 218 -753 632
-754 121 0 275 41 359 96 l23 14 -57 114 -56 113 -56 -28 c-201 -100 -457 -20
-544 169 -31 65 -31 207 -1 272 33 71 97 135 172 172 64 32 72 33 182 33 108
0 119 -2 181 -31 l66 -31 56 112 c61 124 62 118 -9 153 -105 53 -313 83 -426
62z"/>
<path d="M2852 5628 c-80 -196 -413 -1019 -423 -1045 l-9 -24 146 3 146 3 43
115 42 115 227 0 228 0 43 -115 43 -115 145 -3 146 -3 -195 483 c-108 266
-216 534 -241 596 l-45 112 -123 0 -123 0 -50 -122z m253 -450 c29 -75 50
-139 47 -142 -3 -4 -64 -6 -135 -6 -119 0 -129 1 -122 18 3 9 31 80 60 157 29
77 57 149 61 160 9 22 5 30 89 -187z"/>
<path d="M5650 5155 l0 -595 135 0 135 0 0 367 c0 282 3 364 12 355 6 -6 113
-170 238 -364 l226 -353 137 -3 137 -3 0 596 0 595 -135 0 -135 0 -2 -370 -3
-369 -235 367 -235 367 -138 3 -137 3 0 -596z"/>
<path d="M6870 5630 l0 -120 254 -2 254 -3 -265 -460 c-146 -253 -267 -466
-270 -472 -4 -10 30 -13 153 -13 l159 1 313 552 c272 482 312 559 312 595 l0
42 -455 0 -455 0 0 -120z"/>
<path d="M3952 3015 c-17 -38 -15 -45 14 -45 24 0 25 3 19 28 -10 40 -20 46
-33 17z"/>
<path d="M5861 3016 c-13 -33 -10 -39 17 -34 17 3 17 6 6 33 l-12 30 -11 -29z"/>
<path d="M6300 3000 c0 -63 2 -70 20 -70 29 0 60 36 60 70 0 34 -31 70 -60 70
-18 0 -20 -7 -20 -70z"/>
<path d="M5586 2634 c-12 -11 -16 -35 -16 -89 0 -75 13 -105 45 -105 32 0 45
30 45 104 0 58 -4 76 -18 89 -23 21 -36 21 -56 1z"/>
<path d="M5926 2628 c-24 -33 -21 -139 3 -169 16 -21 22 -22 45 -11 25 11 26
15 26 96 0 74 -3 87 -19 96 -28 15 -38 13 -55 -12z"/>
</g>
</svg>
